<?xml version="1.0" standalone="no"?>
<!DOCTYPE svg PUBLIC "-//W3C//DTD SVG 20010904//EN"
 "http://www.w3.org/TR/2001/REC-SVG-20010904/DTD/svg10.dtd">
<svg version="1.0" xmlns="http://www.w3.org/2000/svg"
 width="2000.000000pt" height="2000.000000pt" viewBox="0 0 2000.000000 2000.000000"
 preserveAspectRatio="xMidYMid meet">
<metadata>
Created by potrace 1.14, written by Peter Selinger 2001-2017
</metadata>
<g transform="translate(0.000000,2000.000000) scale(0.100000,-0.100000)"
fill="#000000" stroke="none">
<path d="M9735 17065 c-334 -54 -637 -192 -890 -405 -93 -78 -3170 -3176
-3243 -3265 -177 -215 -307 -491 -368 -779 -32 -152 -43 -422 -24 -584 38
-324 171 -646 375 -907 35 -45 296 -316 580 -603 l517 -522 -513 -518 c-282
-284 -539 -551 -572 -592 -209 -262 -334 -551 -383 -890 -24 -168 -15 -451 20
-616 60 -284 185 -550 365 -774 74 -93 3180 -3219 3271 -3293 227 -183 498
-310 792 -369 98 -20 143 -23 338 -23 196 0 240 3 339 23 301 61 586 198 816
392 93 78 3170 3176 3243 3265 177 215 307 491 368 779 32 152 43 422 24 584
-38 324 -171 646 -375 907 -35 45 -296 316 -580 603 l-517 522 513 518 c282
284 539 551 572 592 209 262 334 551 383 890 24 168 15 451 -20 616 -60 284
-185 550 -365 774 -74 93 -3180 3219 -3271 3293 -226 182 -498 309 -786 368
-142 28 -471 36 -609 14z"/>
</g>
</svg>
