<?xml version="1.0" standalone="no"?>
<!DOCTYPE svg PUBLIC "-//W3C//DTD SVG 20010904//EN"
 "http://www.w3.org/TR/2001/REC-SVG-20010904/DTD/svg10.dtd">
<svg version="1.0" xmlns="http://www.w3.org/2000/svg"
 width="400.000000pt" height="400.000000pt" viewBox="0 0 400.000000 400.000000"
 preserveAspectRatio="xMidYMid meet">

<g transform="translate(0.000000,400.000000) scale(0.100000,-0.100000)"
fill="#000000" stroke="none">
<path d="M1797 3820 c-423 -53 -790 -232 -1087 -530 -134 -134 -221 -249 -313
-412 -184 -328 -261 -735 -212 -1115 54 -410 230 -768 525 -1063 281 -281 611
-450 1020 -522 99 -17 451 -17 550 0 409 72 739 241 1020 522 240 240 397 512
480 833 138 529 34 1081 -288 1537 -87 122 -291 327 -412 412 -237 167 -484
271 -772 324 -97 18 -412 27 -511 14z m443 -740 c338 -74 624 -301 770 -613
279 -594 -15 -1297 -635 -1520 -231 -83 -509 -83 -740 0 -481 173 -788 655
-736 1154 56 535 468 945 1006 1003 73 7 249 -5 335 -24z"/>
<path d="M1836 2929 c-22 -5 -42 -11 -44 -13 -2 -2 35 -60 81 -128 79 -114
250 -392 259 -419 6 -17 198 76 295 143 76 52 203 170 203 188 0 19 -117 101
-205 145 -143 70 -214 87 -395 91 -85 2 -173 -1 -194 -7z"/>
<path d="M1525 2814 c-193 -115 -344 -299 -416 -508 -42 -119 -43 -116 49
-116 162 0 474 39 676 85 60 14 111 27 114 30 13 13 -330 545 -351 545 -7 -1
-39 -17 -72 -36z"/>
<path d="M2660 2511 c-85 -87 -233 -190 -361 -251 l-87 -41 42 -95 c38 -87 43
-94 65 -89 73 18 444 1 626 -28 16 -3 5 121 -20 218 -12 50 -37 121 -53 158
-33 72 -119 208 -130 206 -4 -1 -41 -36 -82 -78z"/>
<path d="M1915 2128 c-210 -55 -459 -90 -728 -104 l-138 -6 6 -72 c20 -225 86
-392 223 -565 l19 -23 58 83 c83 120 268 300 391 382 98 65 228 131 309 157
22 7 43 15 47 17 4 2 -10 40 -32 84 -22 43 -41 78 -43 78 -1 -1 -51 -15 -112
-31z"/>
<path d="M2415 1893 c-67 -6 -66 -3 -23 -130 42 -126 122 -427 133 -505 4 -27
10 -48 14 -48 15 0 139 110 182 161 112 133 194 299 214 432 l7 44 -79 16
c-153 33 -304 43 -448 30z"/>
<path d="M2065 1797 c-169 -73 -302 -159 -433 -281 -62 -58 -169 -191 -197
-246 l-14 -28 62 -41 c89 -57 198 -105 302 -132 166 -42 410 -27 556 35 l37
15 -23 110 c-13 60 -35 153 -50 207 -33 124 -126 404 -134 404 -3 0 -51 -20
-106 -43z"/>
</g>
</svg>
