<svg width="1238" height="292" viewBox="0 0 1238 292" fill="none" xmlns="http://www.w3.org/2000/svg">
<path d="M0 0H100V25C100 80.2285 55.2285 125 0 125V0Z" fill="#003A7A"/>
<path d="M0 125H100V150C100 205.228 55.2285 250 0 250V125Z" fill="#003A7A"/>
<path d="M100 250L100 125C155.228 125 200 169.772 200 225L200 250L100 250Z" fill="#003A7A"/>
<path d="M100 0H137.5C172.018 0 200 27.9822 200 62.5C200 97.0178 172.018 125 137.5 125H100V0Z" fill="#003A7A"/>
<path d="M459.499 224.04H421.182L378.157 150.329H335.524V224.04H301V28H378.811C394.068 28 407.102 30.4396 417.912 35.3188C428.723 40.198 437.049 47.2119 442.89 56.3604C448.732 65.4218 451.652 76.3564 451.652 89.1644C451.652 102.756 448.296 114.301 441.583 123.798C434.87 133.208 425.367 140.091 413.074 144.448L459.499 224.04ZM335.524 122.099H376.326C388.968 122.099 398.776 119.311 405.75 113.735C412.812 108.158 416.343 100.317 416.343 90.2099C416.343 80.103 412.856 72.2614 405.881 66.6851C398.907 61.1089 389.055 58.3208 376.326 58.3208H335.524V122.099Z" fill="#000D16"/>
<path d="M601.128 208.879C584.824 220.729 566.996 226.653 547.641 226.653C533.604 226.653 521.006 223.604 509.847 217.505C498.688 211.406 489.839 203.085 483.3 192.543C476.848 182 473.622 170.063 473.622 156.733C473.622 144.099 476.543 132.816 482.384 122.883C488.313 112.95 496.377 105.109 506.578 99.3584C516.865 93.6079 528.461 90.7327 541.364 90.7327C554.79 90.7327 566.56 93.9129 576.673 100.273C586.873 106.547 594.807 115.303 600.474 126.543C606.141 137.695 608.974 150.677 608.974 165.489V169.671H508.278C509.847 175.596 512.593 180.824 516.517 185.354C520.527 189.885 525.496 193.414 531.425 195.941C537.353 198.467 544.023 199.731 551.433 199.731C565.383 199.731 578.286 195.2 590.143 186.139L601.128 208.879ZM506.97 150.851H579.158C578.46 144.317 576.455 138.61 573.142 133.731C569.916 128.851 565.688 125.061 560.457 122.36C555.313 119.572 549.515 118.178 543.064 118.178C536.525 118.178 530.684 119.572 525.54 122.36C520.396 125.149 516.211 129.026 512.986 133.992C509.76 138.871 507.755 144.491 506.97 150.851Z" fill="#000D16"/>
<path d="M667.169 290.03L634.998 279.522V93.3465H663.376L664.946 111.644C670.7 105.109 677.631 100.012 685.739 96.3525C693.847 92.6059 702.696 90.7327 712.286 90.7327C724.492 90.7327 735.39 93.695 744.98 99.6198C754.657 105.545 762.242 113.648 767.735 123.929C773.314 134.123 776.104 145.711 776.104 158.693C776.104 171.675 773.314 183.307 767.735 193.588C762.242 203.782 754.657 211.842 744.98 217.766C735.39 223.691 724.492 226.653 712.286 226.653C703.306 226.653 694.98 225.042 687.308 221.818C679.636 218.594 672.923 214.063 667.169 208.226V290.03ZM705.355 197.64C712.678 197.64 719.174 195.984 724.84 192.673C730.595 189.275 735.041 184.657 738.179 178.82C741.405 172.895 743.018 166.143 743.018 158.562C743.018 150.982 741.405 144.273 738.179 138.436C734.954 132.511 730.507 127.893 724.84 124.582C719.174 121.184 712.678 119.485 705.355 119.485C698.468 119.485 692.234 121.053 686.654 124.19C681.075 127.24 676.585 131.465 673.185 136.867C669.784 142.182 667.779 148.281 667.169 155.164V162.352C667.779 169.236 669.741 175.335 673.054 180.65C676.454 185.964 680.944 190.147 686.524 193.196C692.103 196.158 698.38 197.64 705.355 197.64Z" fill="#000D16"/>
<path d="M915.118 224.04H887.132L885.301 207.964C880.506 213.889 874.534 218.507 867.385 221.818C860.236 225.042 852.302 226.653 843.584 226.653C834.342 226.653 826.104 224.867 818.867 221.295C811.631 217.636 805.921 212.669 801.736 206.396C797.638 200.123 795.59 192.978 795.59 184.962C795.59 176.511 797.813 169.105 802.259 162.745C806.793 156.297 812.939 151.244 820.698 147.584C828.545 143.925 837.481 142.095 847.507 142.095C853.61 142.095 859.713 142.792 865.816 144.186C872.006 145.58 877.716 147.541 882.947 150.067V145.885C882.947 140.135 881.378 135.168 878.239 130.986C875.1 126.804 870.872 123.58 865.554 121.315C860.236 118.962 854.264 117.786 847.638 117.786C841.622 117.786 835.607 118.832 829.591 120.923C823.575 122.927 817.952 125.933 812.721 129.941L803.567 104.717C811.936 100.099 820.48 96.6139 829.199 94.2614C838.004 91.9089 846.592 90.7327 854.961 90.7327C867.254 90.7327 877.89 93.1723 886.87 98.0515C895.85 102.844 902.781 109.727 907.663 118.701C912.633 127.588 915.118 138.087 915.118 150.198V224.04ZM850.253 200.776C855.92 200.776 861.151 199.6 865.946 197.248C870.829 194.895 874.795 191.628 877.847 187.446C880.985 183.176 882.642 178.297 882.816 172.808V171.37C878.719 168.408 874.098 166.143 868.954 164.574C863.81 162.919 858.623 162.091 853.392 162.091C845.371 162.091 838.789 163.921 833.645 167.58C828.501 171.152 825.929 175.857 825.929 181.695C825.929 185.267 826.975 188.535 829.068 191.497C831.16 194.372 834.037 196.638 837.699 198.293C841.448 199.949 845.633 200.776 850.253 200.776Z" fill="#000D16"/>
<path d="M1001.56 225.085C989.441 225.085 978.63 222.166 969.127 216.329C959.624 210.491 952.127 202.519 946.634 192.412C941.142 182.218 938.395 170.717 938.395 157.909C938.395 145.014 941.142 133.513 946.634 123.406C952.127 113.299 959.624 105.327 969.127 99.4891C978.63 93.6515 989.441 90.7327 1001.56 90.7327C1011.06 90.7327 1019.82 92.5624 1027.85 96.2218C1035.87 99.8812 1042.67 104.978 1048.25 111.513L1049.82 93.3465H1078.06V220.511C1078.06 234.974 1074.97 247.564 1068.78 258.281C1062.67 268.998 1054.04 277.275 1042.88 283.113C1031.72 289.038 1018.52 292 1003.26 292C982.074 292 963.112 285.248 946.373 271.743L959.581 245.473C971.263 257.236 985.126 263.117 1001.17 263.117C1010.23 263.117 1018.08 261.287 1024.71 257.628C1031.42 254.055 1036.61 248.958 1040.27 242.337C1044.02 235.802 1045.89 228.135 1045.89 219.335V206.788C1040.31 212.539 1033.73 217.026 1026.15 220.249C1018.56 223.473 1010.37 225.085 1001.56 225.085ZM1008.62 196.463C1015.51 196.463 1021.74 194.939 1027.32 191.889C1032.99 188.752 1037.48 184.483 1040.79 179.081C1044.19 173.679 1045.89 167.537 1045.89 160.653V154.903C1045.89 148.02 1044.19 141.921 1040.79 136.606C1037.48 131.291 1032.99 127.109 1027.32 124.059C1021.66 120.923 1015.42 119.354 1008.62 119.354C1001.47 119.354 995.064 121.053 989.397 124.451C983.731 127.762 979.241 132.337 975.928 138.174C972.702 144.012 971.089 150.59 971.089 157.909C971.089 165.228 972.702 171.806 975.928 177.644C979.241 183.481 983.731 188.099 989.397 191.497C995.064 194.808 1001.47 196.463 1008.62 196.463Z" fill="#000D16"/>
<path d="M1230.15 208.879C1213.85 220.729 1196.02 226.653 1176.67 226.653C1162.63 226.653 1150.03 223.604 1138.87 217.505C1127.71 211.406 1118.86 203.085 1112.33 192.543C1105.87 182 1102.65 170.063 1102.65 156.733C1102.65 144.099 1105.57 132.816 1111.41 122.883C1117.34 112.95 1125.4 105.109 1135.6 99.3584C1145.89 93.6079 1157.49 90.7327 1170.39 90.7327C1183.82 90.7327 1195.59 93.9129 1205.7 100.273C1215.9 106.547 1223.83 115.303 1229.5 126.543C1235.17 137.695 1238 150.677 1238 165.489V169.671H1137.3C1138.87 175.596 1141.62 180.824 1145.54 185.354C1149.55 189.885 1154.52 193.414 1160.45 195.941C1166.38 198.467 1173.05 199.731 1180.46 199.731C1194.41 199.731 1207.31 195.2 1219.17 186.139L1230.15 208.879ZM1136 150.851H1208.18C1207.49 144.317 1205.48 138.61 1202.17 133.731C1198.94 128.851 1194.71 125.061 1189.48 122.36C1184.34 119.572 1178.54 118.178 1172.09 118.178C1165.55 118.178 1159.71 119.572 1154.57 122.36C1149.42 125.149 1145.24 129.026 1142.01 133.992C1138.79 138.871 1136.78 144.491 1136 150.851Z" fill="#000D16"/>
</svg>
