<svg width="240" height="354" viewBox="0 0 240 354" fill="none" xmlns="http://www.w3.org/2000/svg">
<path d="M13.1417 265.153C-4.38055 247.517 -4.38056 218.923 13.1417 201.287L88.2732 125.668C105.795 108.031 134.205 108.031 151.727 125.668L226.858 201.287C244.381 218.923 244.381 247.517 226.858 265.153L151.727 340.773C134.205 358.409 105.795 358.409 88.2732 340.773L13.1417 265.153Z" fill="#005796"/>
<path d="M13.1417 152.713C-4.38055 135.077 -4.38056 106.483 13.1417 88.8468L88.2732 13.2271C105.795 -4.40901 134.205 -4.40903 151.727 13.2271L226.858 88.8468C244.381 106.483 244.381 135.077 226.858 152.713L151.727 228.332C134.205 245.969 105.795 245.969 88.2732 228.332L13.1417 152.713Z" fill="#003052"/>
</svg>
