<?xml version="1.0" standalone="no"?>
<!DOCTYPE svg PUBLIC "-//W3C//DTD SVG 20010904//EN"
 "http://www.w3.org/TR/2001/REC-SVG-20010904/DTD/svg10.dtd">
<svg version="1.0" xmlns="http://www.w3.org/2000/svg"
 width="512.000000pt" height="512.000000pt" viewBox="0 0 512.000000 512.000000"
 preserveAspectRatio="xMidYMid meet">

<g transform="translate(0.000000,512.000000) scale(0.100000,-0.100000)"
fill="#000000" stroke="none">
<path d="M2325 5109 c-474 -45 -925 -221 -1314 -512 -124 -92 -396 -364 -488
-488 -696 -932 -696 -2166 0 -3098 92 -124 364 -396 488 -488 932 -696 2166
-696 3098 0 124 92 396 364 488 488 696 932 696 2166 0 3098 -92 124 -364 396
-488 488 -520 388 -1158 571 -1784 512z m-216 -1736 c322 -79 569 -343 626
-668 19 -110 19 -180 0 -290 -57 -327 -300 -585 -631 -670 -99 -26 -282 -24
-389 4 -156 41 -336 152 -426 262 -137 168 -199 337 -199 549 0 321 160 588
441 739 175 94 388 121 578 74z m1212 -40 c75 -24 171 -120 221 -223 84 -174
112 -311 112 -550 0 -184 -13 -282 -55 -411 -62 -189 -170 -329 -282 -363
-139 -43 -274 40 -367 226 -81 163 -114 321 -114 548 0 227 33 385 114 547 61
123 133 195 229 229 49 18 79 17 142 -3z m627 -135 c52 -103 82 -338 82 -638
0 -381 -49 -648 -127 -698 -20 -13 -24 -12 -46 12 -79 85 -132 504 -108 859
18 280 55 456 108 513 22 24 26 25 46 12 12 -8 32 -35 45 -60z"/>
</g>
</svg>
